D:\school\WTK\thesis\model\3dpredictsim\Results\Batchsim_tmt_linear_v2\Pog_s1_tmt_aCst_d05_k2000_ig24_pas_GRF.mot
nRows=12
nColumns=19

name D:\school\WTK\thesis\model\3dpredictsim\Results\Batchsim_tmt_linear_v2\Pog_s1_tmt_aCst_d05_k2000_ig24_pas_GRF.mot
datacolumns 19
datarows 12
range 0.0000000000 0.1179383428
endheader
time 	ground_force_vx	ground_force_vy	ground_force_vz	ground_force_px	ground_force_py	ground_force_pz	1_ground_force_vx	1_ground_force_vy	1_ground_force_vz	1_ground_force_px	1_ground_force_py	1_ground_force_pz	ground_torque_x	ground_torque_y	ground_torque_z	1_ground_torque_x	1_ground_torque_y	1_ground_torque_z
        0.0000000000	      -61.3760627299	       42.5316242950	       10.2181916719	        0.1600019386	        0.0000000000	        0.0471110820	      124.7550833627	      522.4498731371	        4.6041958734	       -0.3459040860	        0.0000000000	       -0.0493382038	        0.0000000000	        0.0000000000	        0.0000000000	        0.0000000000	        0.0000000000	        0.0000000000	
        0.0107216675	     -113.3293560375	       96.7859147061	       25.3357747781	        0.1706215880	        0.0000000000	        0.0452948104	       98.6910624158	      434.4685740592	       -0.5036475493	       -0.3357296494	        0.0000000000	       -0.0479981535	        0.0000000000	        0.0000000000	        0.0000000000	        0.0000000000	        0.0000000000	        0.0000000000	
        0.0214433351	     -113.7433412274	      209.1442492061	       47.6520840876	        0.1776405795	        0.0000000000	        0.0443477498	       64.2831146402	      332.7245650340	       -6.3380871735	       -0.3193756349	        0.0000000000	       -0.0454792532	        0.0000000000	        0.0000000000	        0.0000000000	        0.0000000000	        0.0000000000	        0.0000000000	
        0.0321650026	      -60.2532464751	      381.3667348652	        7.3310743882	        0.1826317934	        0.0000000000	        0.0436306587	       29.8332386264	      234.8055514957	       -5.9190858579	       -0.2941205156	        0.0000000000	       -0.0410446411	        0.0000000000	        0.0000000000	        0.0000000000	        0.0000000000	        0.0000000000	        0.0000000000	
        0.0428866701	      -72.7487966989	      593.9028498657	       -6.9475365205	        0.1912159040	        0.0000000000	        0.0458635135	        6.7069590431	      160.5119321514	       -8.9183463991	       -0.2636496995	        0.0000000000	       -0.0337640731	        0.0000000000	        0.0000000000	        0.0000000000	        0.0000000000	        0.0000000000	        0.0000000000	
        0.0536083376	     -111.1269789775	      798.5742084366	      -14.5527863289	        0.1996806451	        0.0000000000	        0.0484188517	       -1.3258865874	      133.8180723095	      -12.3884442252	       -0.2597964941	        0.0000000000	       -0.0327361656	        0.0000000000	        0.0000000000	        0.0000000000	        0.0000000000	        0.0000000000	        0.0000000000	
        0.0643300052	     -126.8464196908	      900.4847523057	      -17.9608698983	        0.2054113670	        0.0000000000	        0.0499987110	       -2.2459839532	      100.8606685764	      -14.2321934213	       -0.2592134146	        0.0000000000	       -0.0329578354	        0.0000000000	        0.0000000000	        0.0000000000	        0.0000000000	        0.0000000000	        0.0000000000	
        0.0750516727	     -123.5790450763	      905.6687407094	      -18.3100361169	        0.2096026756	        0.0000000000	        0.0510305875	       -5.2749668540	       64.4912349338	      -13.2522097537	       -0.2587631028	        0.0000000000	       -0.0330832730	        0.0000000000	        0.0000000000	        0.0000000000	        0.0000000000	        0.0000000000	        0.0000000000	
        0.0857733402	     -113.3540353054	      868.9256306495	      -17.7267249688	        0.2132286958	        0.0000000000	        0.0517783926	       -9.3046520107	       26.5428251200	       -6.5633826439	       -0.2591567214	        0.0000000000	       -0.0327314562	        0.0000000000	        0.0000000000	        0.0000000000	        0.0000000000	        0.0000000000	        0.0000000000	
        0.0964950077	     -100.9045561945	      830.3773649065	      -16.1262624762	        0.2170663045	        0.0000000000	        0.0524144848	        0.1692484333	       -0.1679907377	        0.0144734925	        0.0000000000	        0.0000000000	        0.0000000000	        0.0000000000	        0.0000000000	        0.0000000000	        0.0000000000	        0.0000000000	        0.0000000000	
        0.1072166753	      -92.0556657618	      805.4730436269	      -17.1877687515	        0.2222024178	        0.0000000000	        0.0530771256	        0.0007399903	       -0.0006050245	       -0.0000017062	        0.0000000000	        0.0000000000	        0.0000000000	        0.0000000000	        0.0000000000	        0.0000000000	        0.0000000000	        0.0000000000	        0.0000000000	
        0.1179383428	      -84.8813559838	      782.5623931210	      -17.1662749388	        0.2283699673	        0.0000000000	        0.0532957761	        0.0003007218	       -0.0002137866	       -0.0000067422	        0.0000000000	        0.0000000000	        0.0000000000	        0.0000000000	        0.0000000000	        0.0000000000	        0.0000000000	        0.0000000000	        0.0000000000	
